<svg width="20" height="20" viewBox="0 0 20 20" fill="none" xmlns="http://www.w3.org/2000/svg">
<path fill-rule="evenodd" clip-rule="evenodd" d="M3.65039 11.9268C5.85032 10.9352 8.65003 10.7761 11.0166 11.4844C11.3499 11.5844 11.5336 11.9348 11.4336 12.2598C11.3336 12.5847 10.9832 12.7767 10.6582 12.6768C8.57498 12.0518 6.08362 12.193 4.16699 13.0596C3.40033 13.4096 3.125 14.2766 3.125 14.9766V16.668C3.125 17.0096 2.84167 17.293 2.5 17.293C2.15833 17.293 1.875 17.0096 1.875 16.668V14.9766C1.875 13.5932 2.55039 12.4268 3.65039 11.9268ZM15 11.042C15.3417 11.042 15.625 11.3253 15.625 11.667V13.542H17.5C17.8417 13.542 18.125 13.8253 18.125 14.167C18.1248 14.5085 17.8416 14.792 17.5 14.792H15.625V16.667C15.6248 17.0085 15.3416 17.292 15 17.292C14.6584 17.292 14.3752 17.0085 14.375 16.667V14.792H12.5C12.1584 14.792 11.8752 14.5085 11.875 14.167C11.875 13.8253 12.1583 13.542 12.5 13.542H14.375V11.667C14.375 11.3253 14.6583 11.042 15 11.042ZM7.91699 2.70801C9.86684 2.70818 11.458 4.30011 11.458 6.25C11.458 8.19989 9.86684 9.79182 7.91699 9.79199C5.96699 9.79199 4.375 8.2 4.375 6.25C4.375 4.3 5.96699 2.70801 7.91699 2.70801ZM12.2578 2.85938C13.7491 3.30115 14.7908 4.7008 14.791 6.25879C14.791 7.81693 13.7742 9.20021 12.2578 9.65039C12.1995 9.66706 12.1404 9.67578 12.082 9.67578V9.66797C11.8155 9.66784 11.5658 9.49258 11.4824 9.21777C11.3824 8.88444 11.5744 8.54238 11.8994 8.44238C12.8742 8.15059 13.5322 7.26746 13.5322 6.25098C13.5322 5.23443 12.8576 4.33423 11.8994 4.05078C11.5662 3.95082 11.3827 3.60127 11.4824 3.27637C11.5824 2.94303 11.9328 2.75938 12.2578 2.85938ZM7.91699 3.95801C6.65033 3.95801 5.625 4.98333 5.625 6.25C5.625 7.51667 6.65033 8.54199 7.91699 8.54199C9.18351 8.54182 10.208 7.51656 10.208 6.25C10.208 4.98344 9.18351 3.95818 7.91699 3.95801Z" fill="white"/>
</svg>
