<svg width="20" height="20" viewBox="0 0 20 20" fill="none" xmlns="http://www.w3.org/2000/svg">
<path d="M1.04163 5.8335C1.04163 4.10761 2.44074 2.7085 4.16663 2.7085C5.89252 2.7085 7.29163 4.10761 7.29163 5.8335C7.29163 7.55939 5.89252 8.9585 4.16663 8.9585C2.44074 8.9585 1.04163 7.55939 1.04163 5.8335Z" fill="white"/>
<path d="M2.70837 14.9998C2.70837 12.8137 4.48058 11.0415 6.66671 11.0415C8.85283 11.0415 10.625 12.8137 10.625 14.9998C10.625 17.186 8.85283 18.9582 6.66671 18.9582C4.48058 18.9582 2.70837 17.186 2.70837 14.9998Z" fill="white"/>
<path d="M9.375 5.83317C9.375 3.18681 11.5203 1.0415 14.1667 1.0415C16.813 1.0415 18.9583 3.18681 18.9583 5.83317C18.9583 8.47953 16.813 10.6248 14.1667 10.6248C11.5203 10.6248 9.375 8.47953 9.375 5.83317Z" fill="white"/>
</svg>
