<svg width="20" height="20" viewBox="0 0 20 20" fill="none" xmlns="http://www.w3.org/2000/svg">
<path d="M15.0003 11.25V17.9167M18.3337 14.5833L11.667 14.5833" stroke="white" stroke-width="1.5" stroke-linecap="round"/>
<path d="M5.83366 5.41665H13.9587C15.7142 5.41665 16.592 5.41665 17.2226 5.83797C17.4956 6.02037 17.7299 6.25475 17.9123 6.52772C18.2993 7.10681 18.3306 8.07011 18.3332 9.58331M10.0003 5.41665L9.47246 4.36092C9.03515 3.48629 8.63551 2.60591 7.66637 2.24249C7.24191 2.08331 6.75701 2.08331 5.78722 2.08331C4.27349 2.08331 3.51663 2.08331 2.94871 2.40024C2.54388 2.62616 2.20984 2.9602 1.98392 3.36503C1.66699 3.93295 1.66699 4.68981 1.66699 6.20354V8.74998C1.66699 12.6784 1.66699 14.6425 2.88738 15.8629C4.01824 16.9938 5.78777 17.0767 9.16699 17.0828" stroke="white" stroke-width="1.5" stroke-linecap="round"/>
</svg>
