<svg width="20" height="20" viewBox="0 0 20 20" fill="none" xmlns="http://www.w3.org/2000/svg">
<path d="M14.9993 11.25V17.9167M18.3327 14.5833L11.666 14.5833" stroke="white" stroke-width="1.5" stroke-linecap="round"/>
<path d="M5.83268 5.41666H13.9577C15.7133 5.41666 16.591 5.41666 17.2216 5.83799C17.4946 6.02038 17.729 6.25476 17.9114 6.52774C18.2983 7.10682 18.3296 8.07013 18.3322 9.58333M9.99935 5.41666L9.47149 4.36093C9.03417 3.48631 8.63454 2.60593 7.6654 2.2425C7.24093 2.08333 6.75603 2.08333 5.78624 2.08333C4.27252 2.08333 3.51565 2.08333 2.94773 2.40026C2.5429 2.62618 2.20887 2.96022 1.98295 3.36505C1.66602 3.93296 1.66602 4.68983 1.66602 6.20355V8.74999C1.66602 12.6784 1.66602 14.6426 2.8864 15.8629C4.01726 16.9938 5.78679 17.0768 9.16602 17.0828" stroke="white" stroke-width="1.5" stroke-linecap="round"/>
</svg>
