<svg width="20" height="20" viewBox="0 0 20 20" fill="none" xmlns="http://www.w3.org/2000/svg">
<path d="M5.83334 14.1667L5.83334 10.8334" stroke="#5B6078" stroke-width="1.5" stroke-linecap="round"/>
<path d="M10 14.1667L10 5.83337" stroke="#5B6078" stroke-width="1.5" stroke-linecap="round"/>
<path d="M14.1667 14.1666L14.1667 9.16663" stroke="#5B6078" stroke-width="1.5" stroke-linecap="round"/>
<path d="M2.08334 10C2.08334 6.26809 2.08334 4.40211 3.24271 3.24274C4.40208 2.08337 6.26806 2.08337 10 2.08337C13.732 2.08337 15.5979 2.08337 16.7573 3.24274C17.9167 4.40211 17.9167 6.26809 17.9167 10C17.9167 13.732 17.9167 15.598 16.7573 16.7573C15.5979 17.9167 13.732 17.9167 10 17.9167C6.26806 17.9167 4.40208 17.9167 3.24271 16.7573C2.08334 15.598 2.08334 13.732 2.08334 10Z" stroke="#5B6078" stroke-width="1.5" stroke-linejoin="round"/>
</svg>
