<svg width="16" height="16" viewBox="0 0 16 16" fill="none" xmlns="http://www.w3.org/2000/svg">
<path d="M6.25 6.25C6.25 6.05109 6.32902 5.86032 6.46967 5.71967C6.61032 5.57902 6.80109 5.5 7 5.5H9C9.19891 5.5 9.38968 5.57902 9.53033 5.71967C9.67098 5.86032 9.75 6.05109 9.75 6.25C9.75 6.44891 9.67098 6.63968 9.53033 6.78033C9.38968 6.92098 9.19891 7 9 7H7C6.80109 7 6.61032 6.92098 6.46967 6.78033C6.32902 6.63968 6.25 6.44891 6.25 6.25ZM14.75 4.25L14.75 12.25C14.75 12.5815 14.6183 12.8995 14.3839 13.1339C14.1495 13.3683 13.8315 13.5 13.5 13.5L2.5 13.5C2.16848 13.5 1.85054 13.3683 1.61612 13.1339C1.3817 12.8995 1.25 12.5815 1.25 12.25L1.25 4.25C1.25 3.91848 1.3817 3.60054 1.61612 3.36612C1.85054 3.1317 2.16848 3 2.5 3L4.75 3V2.5C4.75 2.03587 4.93437 1.59075 5.26256 1.26256C5.59075 0.934374 6.03587 0.75 6.5 0.75L9.5 0.75C9.96413 0.75 10.4092 0.934374 10.7374 1.26256C11.0656 1.59075 11.25 2.03587 11.25 2.5V3L13.5 3C13.8315 3 14.1495 3.1317 14.3839 3.36612C14.6183 3.60054 14.75 3.91848 14.75 4.25ZM6.25 3L9.75 3V2.5C9.75 2.4337 9.72366 2.37011 9.67678 2.32322C9.62989 2.27634 9.5663 2.25 9.5 2.25L6.5 2.25C6.4337 2.25 6.37011 2.27634 6.32322 2.32322C6.27634 2.37011 6.25 2.4337 6.25 2.5L6.25 3ZM2.75 4.5L2.75 6.70188C4.36847 7.55489 6.1705 8.00047 8 8C9.82957 8.00042 11.6316 7.55463 13.25 6.70125V4.5L2.75 4.5ZM13.25 12L13.25 8.37125C11.5998 9.11545 9.81023 9.50021 8 9.5C6.18975 9.50032 4.40015 9.11556 2.75 8.37125L2.75 12L13.25 12Z" fill="#5B6078"/>
</svg>
