<svg width="20" height="20" viewBox="0 0 20 20" fill="none" xmlns="http://www.w3.org/2000/svg">
<path d="M7.8125 7.8125C7.8125 7.56386 7.91127 7.3254 8.08709 7.14959C8.2629 6.97377 8.50136 6.875 8.75 6.875H11.25C11.4986 6.875 11.7371 6.97377 11.9129 7.14959C12.0887 7.3254 12.1875 7.56386 12.1875 7.8125C12.1875 8.06114 12.0887 8.2996 11.9129 8.47541C11.7371 8.65123 11.4986 8.75 11.25 8.75H8.75C8.50136 8.75 8.2629 8.65123 8.08709 8.47541C7.91127 8.2996 7.8125 8.06114 7.8125 7.8125ZM18.4375 5.3125V15.3125C18.4375 15.7269 18.2729 16.1243 17.9799 16.4174C17.6868 16.7104 17.2894 16.875 16.875 16.875H3.125C2.7106 16.875 2.31317 16.7104 2.02015 16.4174C1.72712 16.1243 1.5625 15.7269 1.5625 15.3125V5.3125C1.5625 4.8981 1.72712 4.50067 2.02015 4.20765C2.31317 3.91462 2.7106 3.75 3.125 3.75H5.9375V3.125C5.9375 2.54484 6.16797 1.98844 6.5782 1.5782C6.98844 1.16797 7.54484 0.9375 8.125 0.9375H11.875C12.4552 0.9375 13.0116 1.16797 13.4218 1.5782C13.832 1.98844 14.0625 2.54484 14.0625 3.125V3.75H16.875C17.2894 3.75 17.6868 3.91462 17.9799 4.20765C18.2729 4.50067 18.4375 4.8981 18.4375 5.3125ZM7.8125 3.75H12.1875V3.125C12.1875 3.04212 12.1546 2.96263 12.096 2.90403C12.0374 2.84542 11.9579 2.8125 11.875 2.8125H8.125C8.04212 2.8125 7.96263 2.84542 7.90403 2.90403C7.84542 2.96263 7.8125 3.04212 7.8125 3.125V3.75ZM3.4375 5.625V8.37734C5.46058 9.44362 7.71312 10.0006 10 10C12.287 10.0005 14.5396 9.44328 16.5625 8.37656V5.625H3.4375ZM16.5625 15V10.4641C14.4998 11.3943 12.2628 11.8753 10 11.875C7.73719 11.8754 5.50019 11.3944 3.4375 10.4641V15H16.5625Z" fill="#1A1D2E"/>
</svg>
