<svg width="20" height="20" viewBox="0 0 20 20" fill="none" xmlns="http://www.w3.org/2000/svg">
<g clip-path="url(#clip0_79_164076)">
<path d="M1.66666 11.6667C1.66666 8.74446 1.66666 7.28336 2.42329 6.29994C2.5618 6.1199 2.71657 5.95482 2.88535 5.80707C3.8073 5 5.17709 5 7.91666 5H12.0833C14.8229 5 16.1927 5 17.1146 5.80707C17.2834 5.95482 17.4382 6.1199 17.5767 6.29994C18.3333 7.28336 18.3333 8.74446 18.3333 11.6667C18.3333 14.5889 18.3333 16.05 17.5767 17.0334C17.4382 17.2134 17.2834 17.3785 17.1146 17.5263C16.1927 18.3333 14.8229 18.3333 12.0833 18.3333H7.91666C5.17709 18.3333 3.8073 18.3333 2.88535 17.5263C2.71657 17.3785 2.5618 17.2134 2.42329 17.0334C1.66666 16.05 1.66666 14.5889 1.66666 11.6667Z" stroke="#5B6078" stroke-width="1.5"/>
<path d="M13.3333 4.99996C13.3333 3.42861 13.3333 2.64294 12.8452 2.15478C12.357 1.66663 11.5713 1.66663 9.99999 1.66663C8.42864 1.66663 7.64297 1.66663 7.15481 2.15478C6.66666 2.64294 6.66666 3.42861 6.66666 4.99996" stroke="#5B6078" stroke-width="1.5" stroke-linecap="round" stroke-linejoin="round"/>
<path d="M9.99998 9.16671C9.0795 9.16671 8.33331 9.72635 8.33331 10.4167C8.33331 11.1071 9.0795 11.6667 9.99998 11.6667C10.9205 11.6667 11.6666 12.2264 11.6666 12.9167C11.6666 13.6071 10.9205 14.1667 9.99998 14.1667M9.99998 9.16671C10.7257 9.16671 11.343 9.51454 11.5718 10M9.99998 9.16671V8.33337M9.99998 14.1667C9.2743 14.1667 8.65695 13.8189 8.42815 13.3334M9.99998 14.1667V15" stroke="#5B6078" stroke-width="1.5" stroke-linecap="round"/>
<path d="M5 10H1.66667" stroke="#5B6078" stroke-width="1.5" stroke-linecap="round"/>
<path d="M18.3333 10L15 10" stroke="#5B6078" stroke-width="1.5" stroke-linecap="round"/>
</g>
<defs>
<clipPath id="clip0_79_164076">
<rect width="20" height="20" fill="white"/>
</clipPath>
</defs>
</svg>
