<svg width="36" height="36" viewBox="0 0 36 36" fill="none" xmlns="http://www.w3.org/2000/svg">
<path d="M5.25 15C5.25 9.34315 5.25 6.51472 7.11719 4.75736C8.98439 3 11.9896 3 18 3H19.1591C24.0509 3 26.4968 3 28.1954 4.19675C28.6821 4.53964 29.1141 4.94629 29.4784 5.40433C30.75 7.00301 30.75 9.30504 30.75 13.9091V17.7273C30.75 22.172 30.75 24.3944 30.0466 26.1694C28.9158 29.0229 26.5243 31.2737 23.4925 32.338C21.6066 33 19.2453 33 14.5227 33C11.8241 33 10.4748 33 9.39717 32.6217C7.66469 32.0135 6.29813 30.7274 5.65195 29.0968C5.25 28.0825 5.25 26.8126 5.25 24.2727V15Z" stroke="#5B6078" stroke-width="2" stroke-linejoin="round"/>
<path d="M30.75 18C30.75 20.7614 28.5114 23 25.75 23C24.7513 23 23.5739 22.825 22.603 23.0852C21.7402 23.3164 21.0664 23.9902 20.8352 24.853C20.575 25.8239 20.75 27.0013 20.75 28C20.75 30.7614 18.5114 33 15.75 33" stroke="#5B6078" stroke-width="2" stroke-linecap="round" stroke-linejoin="round"/>
<path d="M12 10.5H22.5" stroke="#5B6078" stroke-width="2" stroke-linecap="round" stroke-linejoin="round"/>
<path d="M12 16.5H16.5" stroke="#5B6078" stroke-width="2" stroke-linecap="round" stroke-linejoin="round"/>
</svg>
