<svg width="16" height="19" viewBox="0 0 16 19" fill="none" xmlns="http://www.w3.org/2000/svg">
<path d="M4.08659 2C2.79009 2.0389 2.0171 2.1832 1.48223 2.71856C0.75 3.45148 0.75 4.63109 0.75 6.9903L0.75 12.412C0.75 14.7712 0.75 15.9508 1.48223 16.6838C2.21447 17.4167 3.39298 17.4167 5.75 17.4167L9.91667 17.4167C12.2737 17.4167 13.4522 17.4167 14.1844 16.6838C14.9167 15.9508 14.9167 14.7712 14.9167 12.412V6.9903C14.9167 4.63109 14.9167 3.45148 14.1844 2.71856C13.6496 2.1832 12.8766 2.0389 11.5801 2" stroke="#5B6078" stroke-width="1.5"/>
<path d="M4.08203 2.20833C4.08203 1.40292 4.73495 0.75 5.54036 0.75L10.1237 0.75C10.9291 0.75 11.582 1.40292 11.582 2.20833C11.582 3.01375 10.9291 3.66667 10.1237 3.66667L5.54036 3.66667C4.73495 3.66667 4.08203 3.01375 4.08203 2.20833Z" stroke="#5B6078" stroke-width="1.5" stroke-linejoin="round"/>
<path d="M9.08594 8.25H12.0026" stroke="#5B6078" stroke-width="1.5" stroke-linecap="round"/>
<path d="M3.66992 9.08341C3.66992 9.08341 4.08659 9.08341 4.50326 9.91675C4.50326 9.91675 5.82678 7.83341 7.00326 7.41675" stroke="#5B6078" stroke-width="1.5" stroke-linecap="round" stroke-linejoin="round"/>
<path d="M9.08594 13.25H12.0026" stroke="#5B6078" stroke-width="1.5" stroke-linecap="round"/>
<path d="M4.50195 13.25H5.33529" stroke="#5B6078" stroke-width="2" stroke-linecap="round" stroke-linejoin="round"/>
</svg>
