<svg width="16" height="16" viewBox="0 0 16 16" fill="none" xmlns="http://www.w3.org/2000/svg">
<path d="M13.5 1.75L5.5 1.75C5.30109 1.75 5.11032 1.82902 4.96967 1.96967C4.82902 2.11032 4.75 2.30109 4.75 2.5L4.75 4.75L2.5 4.75C2.30109 4.75 2.11032 4.82902 1.96967 4.96967C1.82902 5.11032 1.75 5.30109 1.75 5.5L1.75 13.5C1.75 13.6989 1.82902 13.8897 1.96967 14.0303C2.11032 14.171 2.30109 14.25 2.5 14.25L10.5 14.25C10.6989 14.25 10.8897 14.171 11.0303 14.0303C11.171 13.8897 11.25 13.6989 11.25 13.5L11.25 11.25L13.5 11.25C13.6989 11.25 13.8897 11.171 14.0303 11.0303C14.171 10.8897 14.25 10.6989 14.25 10.5L14.25 2.5C14.25 2.30109 14.171 2.11032 14.0303 1.96967C13.8897 1.82902 13.6989 1.75 13.5 1.75ZM9.75 12.75L3.25 12.75L3.25 6.25L9.75 6.25L9.75 12.75ZM12.75 9.75L11.25 9.75V5.5C11.25 5.30109 11.171 5.11032 11.0303 4.96967C10.8897 4.82902 10.6989 4.75 10.5 4.75L6.25 4.75L6.25 3.25L12.75 3.25L12.75 9.75Z" fill="#C2C8E0"/>
</svg>
