<svg width="20" height="20" viewBox="0 0 20 20" fill="none" xmlns="http://www.w3.org/2000/svg">
<g clip-path="url(#clip0_1930_48809)">
<path d="M13.333 4.16666C13.333 3.39009 13.333 3.0018 13.4599 2.69552C13.629 2.28714 13.9535 1.96268 14.3619 1.79352C14.6682 1.66666 15.0564 1.66666 15.833 1.66666C16.6096 1.66666 16.9979 1.66666 17.3041 1.79352C17.7125 1.96268 18.037 2.28714 18.2061 2.69552C18.333 3.0018 18.333 3.39009 18.333 4.16666V7.49999C18.333 8.27656 18.333 8.66484 18.2061 8.97113C18.037 9.37951 17.7125 9.70397 17.3041 9.87312C16.9979 9.99999 16.6096 9.99999 15.833 9.99999C15.0564 9.99999 14.6682 9.99999 14.3619 9.87312C13.9535 9.70397 13.629 9.37951 13.4599 8.97113C13.333 8.66484 13.333 8.27656 13.333 7.49999V4.16666Z" stroke="#1A1D2E" stroke-width="1.5"/>
<path d="M13.333 15.8333C13.333 15.0568 13.333 14.6685 13.4599 14.3622C13.629 13.9538 13.9535 13.6294 14.3619 13.4602C14.6682 13.3333 15.0564 13.3333 15.833 13.3333C16.6096 13.3333 16.9979 13.3333 17.3041 13.4602C17.7125 13.6294 18.037 13.9538 18.2061 14.3622C18.333 14.6685 18.333 15.0568 18.333 15.8333C18.333 16.6099 18.333 16.9982 18.2061 17.3045C18.037 17.7129 17.7125 18.0373 17.3041 18.2065C16.9979 18.3333 16.6096 18.3333 15.833 18.3333C15.0564 18.3333 14.6682 18.3333 14.3619 18.2065C13.9535 18.0373 13.629 17.7129 13.4599 17.3045C13.333 16.9982 13.333 16.6099 13.333 15.8333Z" stroke="#1A1D2E" stroke-width="1.5"/>
<path d="M1.66699 13.3333C1.66699 11.762 1.66699 10.9763 2.15515 10.4882C2.6433 10 3.42898 10 5.00033 10H6.66699C8.23834 10 9.02401 10 9.51217 10.4882C10.0003 10.9763 10.0003 11.762 10.0003 13.3333V15C10.0003 16.5713 10.0003 17.357 9.51217 17.8452C9.02401 18.3333 8.23834 18.3333 6.66699 18.3333H5.00033C3.42898 18.3333 2.6433 18.3333 2.15515 17.8452C1.66699 17.357 1.66699 16.5713 1.66699 15V13.3333Z" stroke="#1A1D2E" stroke-width="1.5"/>
<path d="M1.66699 4.16666C1.66699 3.39009 1.66699 3.0018 1.79386 2.69552C1.96302 2.28714 2.28747 1.96268 2.69585 1.79352C3.00214 1.66666 3.39042 1.66666 4.16699 1.66666H7.50033C8.27689 1.66666 8.66518 1.66666 8.97146 1.79352C9.37984 1.96268 9.7043 2.28714 9.87346 2.69552C10.0003 3.0018 10.0003 3.39009 10.0003 4.16666C10.0003 4.94323 10.0003 5.33151 9.87346 5.6378C9.7043 6.04618 9.37984 6.37063 8.97146 6.53979C8.66518 6.66666 8.27689 6.66666 7.50033 6.66666H4.16699C3.39042 6.66666 3.00214 6.66666 2.69585 6.53979C2.28747 6.37063 1.96302 6.04618 1.79386 5.6378C1.66699 5.33151 1.66699 4.94323 1.66699 4.16666Z" stroke="#1A1D2E" stroke-width="1.5"/>
</g>
<defs>
<clipPath id="clip0_1930_48809">
<rect width="20" height="20" fill="white"/>
</clipPath>
</defs>
</svg>
