<svg width="18" height="18" viewBox="0 0 18 18" fill="none" xmlns="http://www.w3.org/2000/svg">
<path d="M8.95801 12.4998C9.30319 12.4998 9.58301 12.7796 9.58301 13.1248V16.4578C9.58301 16.803 9.30319 17.0828 8.95801 17.0828C8.61283 17.0828 8.33301 16.803 8.33301 16.4578V13.1248C8.33301 12.7796 8.61283 12.4998 8.95801 12.4998ZM5.625 13.3328C5.96992 13.333 6.24982 13.6129 6.25 13.9578V15.6248C6.25 15.9699 5.97003 16.2496 5.625 16.2498C5.27982 16.2498 5 15.97 5 15.6248V13.9578C5.00018 13.6128 5.27993 13.3328 5.625 13.3328ZM11.4688 0.138481C13.1069 -0.109774 15.3218 -0.1148 17.5498 0.898246C17.7728 0.999654 17.9159 1.22162 17.916 1.46661V14.0975C17.9159 14.3099 17.8084 14.5078 17.6299 14.6229C17.4512 14.7379 17.2257 14.7538 17.0322 14.6658C16.2461 14.3084 15.4584 14.0955 14.7002 13.9832C14.3588 13.9327 14.1223 13.6147 14.1729 13.2732C14.2234 12.9318 14.5414 12.6963 14.8828 12.7469C15.463 12.8328 16.0613 12.971 16.666 13.1775V1.87969C14.8501 1.15492 13.0493 1.16275 11.6562 1.37383C10.9149 1.48619 10.2971 1.65512 9.86719 1.79473C9.65281 1.86436 9.32845 1.99194 9.2168 2.03594C6.98881 3.04888 4.77284 3.04301 3.13477 2.79473C2.37026 2.67883 1.72409 2.50926 1.25 2.36016V13.6717C1.32468 13.6986 1.40983 13.7284 1.50488 13.7596C1.91672 13.8947 2.50976 14.06 3.22363 14.1746C3.5644 14.2293 3.79682 14.5497 3.74219 14.8904C3.68747 15.2312 3.3662 15.4637 3.02539 15.409C2.2349 15.2821 1.57724 15.0996 1.11523 14.9481C0.890579 14.8743 0.515959 14.7253 0.37793 14.6707L0.366211 14.6658C0.143287 14.5644 8.89324e-05 14.3424 0 14.0975V1.46661C6.70734e-05 1.25421 0.107571 1.05623 0.286133 0.941215C0.464714 0.82624 0.689434 0.809476 0.882812 0.89727C0.994098 0.941124 1.31955 1.06877 1.53418 1.13848C1.96399 1.27807 2.58114 1.44704 3.32227 1.55938C4.80904 1.78472 6.76074 1.7796 8.69922 0.898246L8.70508 0.895317C8.74681 0.87756 8.85292 0.832289 8.91602 0.807426C9.04887 0.755073 9.24037 0.684551 9.48145 0.606254C9.96303 0.449856 10.6477 0.262922 11.4688 0.138481ZM12.291 11.6668C12.6362 11.6668 12.916 11.9466 12.916 12.2918V13.9578C12.916 14.303 12.6362 14.5828 12.291 14.5828C11.946 14.5826 11.666 14.3029 11.666 13.9578V12.2918C11.666 11.9467 11.946 11.667 12.291 11.6668ZM8.95801 4.99981C10.4537 4.99981 11.6658 6.21219 11.666 7.70782C11.666 9.20359 10.4538 10.4168 8.95801 10.4168C7.46224 10.4168 6.25 9.20359 6.25 7.70782C6.25018 6.21219 7.46235 4.99981 8.95801 4.99981ZM3.54102 7.70782C4.00125 7.70782 4.375 8.08156 4.375 8.5418V8.54864C4.375 9.00887 4.00125 9.38262 3.54102 9.38262C3.08093 9.38245 2.70801 9.00877 2.70801 8.54864V8.5418C2.70801 8.08167 3.08093 7.70799 3.54102 7.70782ZM8.95801 6.24981C8.1527 6.24981 7.50018 6.90255 7.5 7.70782C7.5 8.51323 8.15259 9.1668 8.95801 9.1668C9.76342 9.1668 10.416 8.51323 10.416 7.70782C10.4158 6.90255 9.76331 6.24981 8.95801 6.24981ZM14.375 6.03496C14.835 6.03514 15.2078 6.40799 15.208 6.86797V6.87579C15.208 7.33591 14.8351 7.70862 14.375 7.70879C13.9148 7.70879 13.541 7.33602 13.541 6.87579V6.86797C13.5412 6.40788 13.9149 6.03496 14.375 6.03496Z" fill="white"/>
</svg>
