<svg width="20" height="20" viewBox="0 0 20 20" fill="none" xmlns="http://www.w3.org/2000/svg">
<path d="M9.64199 17.5H8.75585C5.41397 17.5 3.74303 17.5 2.70484 16.2118C1.66666 14.9236 1.66666 12.8503 1.66666 8.70366V6.01575C1.66666 4.41793 1.66666 3.61902 1.93627 3.01955C2.12846 2.59223 2.41263 2.23963 2.75702 2.00116C3.24015 1.66663 3.88401 1.66663 5.17174 1.66663C5.99675 1.66663 6.40925 1.66663 6.77035 1.83464C7.5948 2.21826 7.93477 3.14755 8.30679 4.07076L8.75585 5.18514M5.83677 5.18514H12.9572C14.4507 5.18514 15.1974 5.18514 15.7339 5.62988C15.9661 5.82241 16.1655 6.0698 16.3206 6.35795C16.5623 6.80666 16.641 7.37398 16.6667 8.26385" stroke="#5B6078" stroke-width="1.5" stroke-linecap="round"/>
<path d="M3.82967 10.4796C4.18911 9.522 4.36883 9.04319 4.71956 8.74251C5.28572 8.25715 6.09971 8.3385 6.79724 8.3385H14.377C16.441 8.3385 17.473 8.3385 17.988 9.00261C18.872 10.1426 17.8291 11.9919 17.409 13.1111C16.6559 15.1175 16.2793 16.1208 15.5293 16.7327C14.3865 17.665 12.7242 17.4863 11.3449 17.4863H8.28103C5.3285 17.4863 3.85224 17.4863 3.08452 16.5722C1.66729 14.8848 3.19226 12.1778 3.82967 10.4796Z" stroke="#5B6078" stroke-width="1.5" stroke-linecap="round"/>
</svg>
