<svg width="64" height="64" viewBox="0 0 64 64" fill="none" xmlns="http://www.w3.org/2000/svg">
<rect width="64" height="64" rx="32" fill="#F1F3F9"/>
<path d="M24.3799 34.3115C27.0198 33.1216 30.3798 32.9314 33.2197 33.7812C33.6197 33.9012 33.8397 34.3219 33.7197 34.7119C33.5996 35.1016 33.1799 35.3318 32.79 35.2119C30.29 34.4619 27.3 34.6319 25 35.6719C24.0801 36.0919 23.75 37.1317 23.75 37.9717V40.002C23.7498 40.4118 23.4099 40.752 23 40.752C22.5901 40.752 22.2502 40.4118 22.25 40.002V37.9717C22.25 36.3117 23.0599 34.9115 24.3799 34.3115ZM38 33.25C38.41 33.25 38.75 33.59 38.75 34V36.25H41C41.41 36.25 41.75 36.59 41.75 37C41.75 37.41 41.41 37.75 41 37.75H38.75V40C38.75 40.41 38.41 40.75 38 40.75C37.59 40.75 37.25 40.41 37.25 40V37.75H35C34.59 37.75 34.25 37.41 34.25 37C34.25 36.59 34.59 36.25 35 36.25H37.25V34C37.25 33.59 37.59 33.25 38 33.25ZM29.5 23.25C31.84 23.25 33.75 25.16 33.75 27.5C33.75 29.84 31.84 31.75 29.5 31.75C27.16 31.75 25.25 29.84 25.25 27.5C25.25 25.16 27.16 23.25 29.5 23.25ZM33.7783 23.9307C33.8984 23.5309 34.3191 23.3107 34.709 23.4307C36.4988 23.9606 37.7489 25.6409 37.749 27.5107C37.749 29.3807 36.5289 31.041 34.709 31.5811C34.6391 31.601 34.5689 31.6113 34.499 31.6113V31.6006C34.1791 31.6006 33.8784 31.3914 33.7783 31.0615C33.6584 30.6617 33.8885 30.251 34.2783 30.1309C35.4483 29.7809 36.2393 28.721 36.2393 27.501C36.2392 26.281 35.4283 25.2013 34.2783 24.8613C33.8786 24.7412 33.6584 24.3205 33.7783 23.9307ZM29.5 24.75C27.98 24.75 26.75 25.98 26.75 27.5C26.75 29.02 27.98 30.25 29.5 30.25C31.02 30.25 32.25 29.02 32.25 27.5C32.25 25.98 31.02 24.75 29.5 24.75Z" fill="#5B6078"/>
</svg>
