<svg width="16" height="16" viewBox="0 0 16 16" fill="none" xmlns="http://www.w3.org/2000/svg">
<g clip-path="url(#clip0_2508_364956)">
<path d="M0.833008 4.66669C0.833008 3.28598 1.9523 2.16669 3.33301 2.16669C4.71372 2.16669 5.83301 3.28598 5.83301 4.66669C5.83301 6.0474 4.71372 7.16669 3.33301 7.16669C1.9523 7.16669 0.833008 6.0474 0.833008 4.66669Z" fill="#526ED3"/>
<path d="M2.16699 12C2.16699 10.2511 3.58476 8.83331 5.33366 8.83331C7.08256 8.83331 8.50033 10.2511 8.50033 12C8.50033 13.7489 7.08256 15.1666 5.33366 15.1666C3.58476 15.1666 2.16699 13.7489 2.16699 12Z" fill="#526ED3"/>
<path d="M7.5 4.66665C7.5 2.54955 9.21624 0.833313 11.3333 0.833313C13.4504 0.833313 15.1667 2.54955 15.1667 4.66665C15.1667 6.78374 13.4504 8.49998 11.3333 8.49998C9.21624 8.49998 7.5 6.78374 7.5 4.66665Z" fill="#526ED3"/>
</g>
<defs>
<clipPath id="clip0_2508_364956">
<rect width="16" height="16" fill="white"/>
</clipPath>
</defs>
</svg>
