<svg width="16" height="16" viewBox="0 0 16 16" fill="none" xmlns="http://www.w3.org/2000/svg">
<g clip-path="url(#clip0_1450_355044)">
<path fill-rule="evenodd" clip-rule="evenodd" d="M0.666626 8.00008C0.666626 3.94989 3.94977 0.666748 7.99996 0.666748C12.0501 0.666748 15.3333 3.94989 15.3333 8.00008C15.3333 12.0503 12.0501 15.3334 7.99996 15.3334C3.94977 15.3334 0.666626 12.0503 0.666626 8.00008ZM7.99996 2.00008C4.68615 2.00008 1.99996 4.68627 1.99996 8.00008C1.99996 11.3139 4.68615 14.0001 7.99996 14.0001C11.3138 14.0001 14 11.3139 14 8.00008C14 4.68627 11.3138 2.00008 7.99996 2.00008ZM7.99996 4.66675C8.36815 4.66675 8.66663 4.96523 8.66663 5.33342V8.00008C8.66663 8.36827 8.36815 8.66675 7.99996 8.66675C7.63177 8.66675 7.33329 8.36827 7.33329 8.00008V5.33342C7.33329 4.96523 7.63177 4.66675 7.99996 4.66675ZM7.33329 10.6667C7.33329 10.2986 7.63177 10.0001 7.99996 10.0001H8.00663C8.37482 10.0001 8.67329 10.2986 8.67329 10.6667C8.67329 11.0349 8.37482 11.3334 8.00663 11.3334H7.99996C7.63177 11.3334 7.33329 11.0349 7.33329 10.6667Z" fill="#5B6078"/>
</g>
<defs>
<clipPath id="clip0_1450_355044">
<rect width="16" height="16" fill="white"/>
</clipPath>
</defs>
</svg>
