<svg width="20" height="20" viewBox="0 0 20 20" fill="none" xmlns="http://www.w3.org/2000/svg">
<path d="M12.9167 9.16667C12.9167 10.7775 11.6109 12.0833 10 12.0833C8.38921 12.0833 7.08337 10.7775 7.08337 9.16667C7.08337 7.55584 8.38921 6.25 10 6.25C11.6109 6.25 12.9167 7.55584 12.9167 9.16667Z" stroke="white" stroke-width="1.5"/>
<path d="M10 1.66675C14.0588 1.66675 17.5 5.02756 17.5 9.10489C17.5 13.2471 14.0028 16.154 10.7725 18.1307C10.5371 18.2635 10.2709 18.3334 10 18.3334C9.72913 18.3334 9.46291 18.2635 9.2275 18.1307C6.00325 16.1347 2.5 13.2615 2.5 9.10489C2.5 5.02756 5.9412 1.66675 10 1.66675Z" stroke="white" stroke-width="1.5"/>
</svg>
