<svg width="20" height="20" viewBox="0 0 20 20" fill="none" xmlns="http://www.w3.org/2000/svg">
<path d="M10.001 14.3751C10.3462 14.3751 10.626 14.6549 10.626 15.0001V18.3331C10.626 18.6782 10.3462 18.9581 10.001 18.9581C9.6558 18.9581 9.37598 18.6782 9.37598 18.3331V15.0001C9.37598 14.6549 9.6558 14.3751 10.001 14.3751ZM6.66797 15.2081C7.01289 15.2082 7.29279 15.4881 7.29297 15.8331V17.5001C7.29297 17.8451 7.013 18.1249 6.66797 18.1251C6.32279 18.1251 6.04297 17.8452 6.04297 17.5001V15.8331C6.04314 15.488 6.3229 15.2081 6.66797 15.2081ZM12.5117 2.01372C14.1499 1.76547 16.3648 1.76044 18.5928 2.77349C18.8158 2.8749 18.9589 3.09687 18.959 3.34185V15.9727C18.9589 16.1851 18.8514 16.3831 18.6729 16.4981C18.4942 16.6131 18.2686 16.629 18.0752 16.5411C17.2891 16.1837 16.5014 15.9708 15.7432 15.8585C15.4017 15.8079 15.1653 15.4899 15.2158 15.1485C15.2664 14.807 15.5843 14.5716 15.9258 14.6221C16.5059 14.708 17.1043 14.8462 17.709 15.0528V3.75494C15.893 3.03016 14.0923 3.03799 12.6992 3.24908C11.9579 3.36144 11.34 3.53036 10.9102 3.66997C10.6958 3.7396 10.3714 3.86719 10.2598 3.91119C8.03178 4.92413 5.81581 4.91825 4.17773 4.66997C3.41323 4.55407 2.76706 4.3845 2.29297 4.2354V15.5469C2.36765 15.5738 2.4528 15.6036 2.54785 15.6348C2.95969 15.7699 3.55273 15.9352 4.2666 16.0499C4.60737 16.1046 4.83978 16.4249 4.78516 16.7657C4.73044 17.1065 4.40917 17.3389 4.06836 17.2842C3.27787 17.1573 2.62021 16.9749 2.1582 16.8233C1.93355 16.7496 1.55893 16.6006 1.4209 16.546L1.40918 16.5411C1.18626 16.4396 1.04306 16.2176 1.04297 15.9727V3.34185C1.04304 3.12946 1.15054 2.93147 1.3291 2.81646C1.50768 2.70148 1.7324 2.68472 1.92578 2.77251C2.03707 2.81637 2.36252 2.94402 2.57715 3.01372C3.00696 3.15331 3.62411 3.32228 4.36523 3.43462C5.85201 3.65997 7.8037 3.65484 9.74219 2.77349L9.74805 2.77056C9.78977 2.7528 9.89589 2.70753 9.95898 2.68267C10.0918 2.63032 10.2833 2.5598 10.5244 2.4815C11.006 2.3251 11.6907 2.13817 12.5117 2.01372ZM13.334 13.542C13.6792 13.542 13.959 13.8219 13.959 14.167V15.8331C13.959 16.1782 13.6792 16.4581 13.334 16.4581C12.989 16.4579 12.709 16.1781 12.709 15.8331V14.167C12.709 13.822 12.989 13.5422 13.334 13.542ZM10.001 6.87505C11.4966 6.87505 12.7088 8.08744 12.709 9.58306C12.709 11.0788 11.4967 12.292 10.001 12.292C8.50521 12.292 7.29297 11.0788 7.29297 9.58306C7.29314 8.08744 8.50531 6.87505 10.001 6.87505ZM4.58398 9.58306C5.04422 9.58306 5.41797 9.95681 5.41797 10.417V10.4239C5.41797 10.8841 5.04422 11.2579 4.58398 11.2579C4.1239 11.2577 3.75098 10.884 3.75098 10.4239V10.417C3.75098 9.95692 4.1239 9.58324 4.58398 9.58306ZM10.001 8.12505C9.19567 8.12505 8.54314 8.77779 8.54297 9.58306C8.54297 10.3885 9.19556 11.042 10.001 11.042C10.8064 11.042 11.459 10.3885 11.459 9.58306C11.4588 8.7778 10.8063 8.12505 10.001 8.12505ZM15.418 7.91021C15.8779 7.91038 16.2508 8.28324 16.251 8.74322V8.75103C16.251 9.21116 15.8781 9.58386 15.418 9.58404C14.9577 9.58404 14.584 9.21127 14.584 8.75103V8.74322C14.5842 8.28313 14.9578 7.91021 15.418 7.91021Z" fill="white"/>
</svg>
