<svg width="20" height="20" viewBox="0 0 20 20" fill="none" xmlns="http://www.w3.org/2000/svg">
<path d="M2.10827 11.995C1.93106 13.1225 2.72333 13.9051 3.69338 14.2952C7.41234 15.7905 12.5877 15.7905 16.3066 14.2952C17.2767 13.9051 18.0689 13.1225 17.8917 11.995C17.7828 11.3021 17.2443 10.7251 16.8453 10.1616C16.3227 9.41456 16.2708 8.59972 16.2707 7.7328C16.2707 4.38255 13.4632 1.66663 10 1.66663C6.53678 1.66663 3.72927 4.38255 3.72927 7.7328C3.7292 8.59972 3.67727 9.41456 3.15468 10.1616C2.7557 10.7251 2.21718 11.3021 2.10827 11.995Z" stroke="#1A1D2E" stroke-width="1.5" stroke-linecap="round" stroke-linejoin="round"/>
<path d="M7.5 17.5C8.16345 18.0182 9.03956 18.3333 10 18.3333C10.9604 18.3333 11.8366 18.0182 12.5 17.5" stroke="#1A1D2E" stroke-width="1.5" stroke-linecap="round" stroke-linejoin="round"/>
</svg>
