<svg width="20" height="20" viewBox="0 0 20 20" fill="none" xmlns="http://www.w3.org/2000/svg">
<path fill-rule="evenodd" clip-rule="evenodd" d="M10 3.44907C8.91334 3.44907 8.03242 4.33 8.03242 5.41667C8.03242 6.50334 8.91334 7.38426 10 7.38426C11.0867 7.38426 11.9676 6.50334 11.9676 5.41667C11.9676 4.33 11.0867 3.44907 10 3.44907ZM6.45834 5.41667C6.45834 3.46066 8.044 1.875 10 1.875C11.956 1.875 13.5417 3.46066 13.5417 5.41667C13.5417 7.37268 11.956 8.95833 10 8.95833C8.044 8.95833 6.45834 7.37268 6.45834 5.41667Z" fill="white"/>
<path d="M11.875 14.5833C11.875 12.6273 13.4607 11.0416 15.4167 11.0416C17.3727 11.0416 18.9583 12.6273 18.9583 14.5833C18.9583 16.5393 17.3727 18.125 15.4167 18.125C13.4607 18.125 11.875 16.5393 11.875 14.5833Z" fill="white"/>
<path d="M1.04166 14.5833C1.04166 12.6273 2.62731 11.0416 4.58332 11.0416C6.53933 11.0416 8.12499 12.6273 8.12499 14.5833C8.12499 16.5393 6.53933 18.125 4.58332 18.125C2.62731 18.125 1.04166 16.5393 1.04166 14.5833Z" fill="white"/>
</svg>
