<svg width="20" height="20" viewBox="0 0 20 20" fill="none" xmlns="http://www.w3.org/2000/svg">
<path d="M1.66669 10C1.66669 6.92572 1.66669 5.38858 2.34487 4.29897C2.59577 3.89585 2.90744 3.54522 3.26578 3.26295C4.23432 2.5 5.60066 2.5 8.33335 2.5H11.6667C14.3994 2.5 15.7657 2.5 16.7343 3.26295C17.0926 3.54522 17.4043 3.89585 17.6552 4.29897C18.3334 5.38858 18.3334 6.92572 18.3334 10C18.3334 13.0743 18.3334 14.6114 17.6552 15.701C17.4043 16.1041 17.0926 16.4548 16.7343 16.737C15.7657 17.5 14.3994 17.5 11.6667 17.5H8.33335C5.60066 17.5 4.23432 17.5 3.26578 16.737C2.90744 16.4548 2.59577 16.1041 2.34487 15.701C1.66669 14.6114 1.66669 13.0743 1.66669 10Z" stroke="#1A1D2E" stroke-width="1.5"/>
<path d="M7.91669 2.5L7.91669 17.5" stroke="#1A1D2E" stroke-width="1.5" stroke-linejoin="round"/>
<path d="M4.16669 5.83331H5.00002M4.16669 8.33331H5.00002" stroke="#1A1D2E" stroke-width="1.5" stroke-linecap="round" stroke-linejoin="round"/>
</svg>
