<svg width="16" height="16" viewBox="0 0 16 16" fill="none" xmlns="http://www.w3.org/2000/svg">
<path d="M6.25 2.25H3.5C3.16848 2.25 2.85054 2.3817 2.61612 2.61612C2.3817 2.85054 2.25 3.16848 2.25 3.5V6.25C2.25 6.58152 2.3817 6.89946 2.61612 7.13388C2.85054 7.3683 3.16848 7.5 3.5 7.5H6.25C6.58152 7.5 6.89946 7.3683 7.13388 7.13388C7.3683 6.89946 7.5 6.58152 7.5 6.25V3.5C7.5 3.16848 7.3683 2.85054 7.13388 2.61612C6.89946 2.3817 6.58152 2.25 6.25 2.25ZM6 6H3.75V3.75H6V6ZM12.5 2.25H9.75C9.41848 2.25 9.10054 2.3817 8.86612 2.61612C8.6317 2.85054 8.5 3.16848 8.5 3.5V6.25C8.5 6.58152 8.6317 6.89946 8.86612 7.13388C9.10054 7.3683 9.41848 7.5 9.75 7.5H12.5C12.8315 7.5 13.1495 7.3683 13.3839 7.13388C13.6183 6.89946 13.75 6.58152 13.75 6.25V3.5C13.75 3.16848 13.6183 2.85054 13.3839 2.61612C13.1495 2.3817 12.8315 2.25 12.5 2.25ZM12.25 6H10V3.75H12.25V6ZM6.25 8.5H3.5C3.16848 8.5 2.85054 8.6317 2.61612 8.86612C2.3817 9.10054 2.25 9.41848 2.25 9.75V12.5C2.25 12.8315 2.3817 13.1495 2.61612 13.3839C2.85054 13.6183 3.16848 13.75 3.5 13.75H6.25C6.58152 13.75 6.89946 13.6183 7.13388 13.3839C7.3683 13.1495 7.5 12.8315 7.5 12.5V9.75C7.5 9.41848 7.3683 9.10054 7.13388 8.86612C6.89946 8.6317 6.58152 8.5 6.25 8.5ZM6 12.25H3.75V10H6V12.25ZM12.5 8.5H9.75C9.41848 8.5 9.10054 8.6317 8.86612 8.86612C8.6317 9.10054 8.5 9.41848 8.5 9.75V12.5C8.5 12.8315 8.6317 13.1495 8.86612 13.3839C9.10054 13.6183 9.41848 13.75 9.75 13.75H12.5C12.8315 13.75 13.1495 13.6183 13.3839 13.3839C13.6183 13.1495 13.75 12.8315 13.75 12.5V9.75C13.75 9.41848 13.6183 9.10054 13.3839 8.86612C13.1495 8.6317 12.8315 8.5 12.5 8.5ZM12.25 12.25H10V10H12.25V12.25Z" fill="currentColor"/>
</svg>
