<svg width="20" height="20" viewBox="0 0 20 20" fill="none" xmlns="http://www.w3.org/2000/svg">
<path d="M9.16663 18.3334L7.9346 16.3718C7.07647 15.0055 6.6474 14.3223 5.96706 14.1995C4.85956 13.9995 3.71491 14.7538 2.91663 15.4243" stroke="white" stroke-width="1.5"/>
<path d="M2.91663 7.5L2.91663 13.3566C2.91663 14.3589 2.91663 14.8601 3.16554 15.2628C3.41446 15.6656 3.86272 15.8897 4.75925 16.338L8.04614 17.9814C8.74678 18.3317 8.75352 18.3333 9.53685 18.3333H12.0833C14.4403 18.3333 15.6188 18.3333 16.3511 17.6011C17.0833 16.8689 17.0833 15.6904 17.0833 13.3333V7.5C17.0833 5.14298 17.0833 3.96447 16.3511 3.23223C15.6188 2.5 14.4403 2.5 12.0833 2.5L7.91663 2.5C5.5596 2.5 4.38109 2.5 3.64886 3.23223C2.91663 3.96447 2.91663 5.14298 2.91663 7.5Z" stroke="white" stroke-width="1.5"/>
<path d="M9.99996 7.5L6.66663 7.5M13.3333 11.6667L6.66663 11.6667" stroke="white" stroke-width="1.5" stroke-linecap="round" stroke-linejoin="round"/>
<path d="M14.1667 1.66675V3.33341M10 1.66675V3.33341M5.83337 1.66675V3.33341" stroke="white" stroke-width="1.5" stroke-linecap="round" stroke-linejoin="round"/>
</svg>
