<svg width="12" height="12" viewBox="0 0 12 12" fill="none" xmlns="http://www.w3.org/2000/svg">
<path d="M10.25 1.27157e-05H1.25C0.918479 1.27157e-05 0.600537 0.131709 0.366117 0.366129C0.131696 0.60055 0 0.918492 0 1.25001V10.25C0 10.5815 0.131696 10.8995 0.366117 11.1339C0.600537 11.3683 0.918479 11.5 1.25 11.5H10.25C10.5815 11.5 10.8995 11.3683 11.1339 11.1339C11.3683 10.8995 11.5 10.5815 11.5 10.25V1.25001C11.5 0.918492 11.3683 0.60055 11.1339 0.366129C10.8995 0.131709 10.5815 1.27157e-05 10.25 1.27157e-05ZM10 1.50001V3.51156H1.5V1.50001H10ZM1.5 10V5.01156H10V10H1.5Z" fill="currentColor"/>
</svg>
