<svg width="16" height="19" viewBox="0 0 16 19" fill="none" xmlns="http://www.w3.org/2000/svg">
<path d="M7 17.4167L5.76798 15.4551C4.90984 14.0887 4.48077 13.4056 3.80044 13.2827C2.69293 13.0828 1.54828 13.8371 0.75 14.5075" stroke="white" stroke-width="1.5"/>
<path d="M0.75 6.58337L0.75 12.4399C0.75 13.4423 0.75 13.9434 0.998915 14.3462C1.24783 14.749 1.69609 14.9731 2.59262 15.4214L5.87951 17.0648C6.58015 17.4151 6.58689 17.4167 7.37023 17.4167H9.91667C12.2737 17.4167 13.4522 17.4167 14.1844 16.6845C14.9167 15.9522 14.9167 14.7737 14.9167 12.4167V6.58337C14.9167 4.22635 14.9167 3.04784 14.1844 2.31561C13.4522 1.58337 12.2737 1.58337 9.91667 1.58337L5.75 1.58337C3.39298 1.58337 2.21447 1.58337 1.48223 2.31561C0.75 3.04784 0.75 4.22635 0.75 6.58337Z" stroke="white" stroke-width="1.5"/>
<path d="M7.83333 6.58337L4.5 6.58337M11.1667 10.75L4.5 10.75" stroke="white" stroke-width="1.5" stroke-linecap="round" stroke-linejoin="round"/>
<path d="M12.0001 0.75V2.41667M7.83341 0.75V2.41667M3.66675 0.75L3.66675 2.41667" stroke="white" stroke-width="1.5" stroke-linecap="round" stroke-linejoin="round"/>
</svg>
