<svg width="19" height="19" viewBox="0 0 19 19" fill="none" xmlns="http://www.w3.org/2000/svg">
<path d="M9.08464 17.4167C13.687 17.4167 17.4179 13.6857 17.4179 9.08333C17.4179 4.48096 13.687 0.75 9.0846 0.75C5.35324 0.75 2.22986 3.20241 1.16797 6.58333H3.2513" stroke="#1A1D2E" stroke-width="1.5" stroke-linecap="round" stroke-linejoin="round"/>
<path d="M9.08398 5.75V9.08333L10.7507 10.75" stroke="#1A1D2E" stroke-width="1.5" stroke-linecap="round" stroke-linejoin="round"/>
<path d="M0.75 9.08337C0.75 9.36445 0.762671 9.64243 0.787446 9.91671M6.58333 17.4167C6.29867 17.323 6.02059 17.2137 5.75 17.0898M1.75783 13.25C1.59712 12.9404 1.45377 12.6194 1.32914 12.2886M3.10935 15.1721C3.36408 15.4466 3.63588 15.7035 3.92296 15.9411" stroke="#1A1D2E" stroke-width="1.5" stroke-linecap="round" stroke-linejoin="round"/>
</svg>
