<svg width="17" height="19" viewBox="0 0 17 19" fill="none" xmlns="http://www.w3.org/2000/svg">
<path d="M14.5 3.66675L13.9836 12.021C13.8516 14.1555 13.7856 15.2227 13.2506 15.99C12.9861 16.3693 12.6455 16.6895 12.2506 16.9301C11.4518 17.4167 10.3825 17.4167 8.24395 17.4167C6.1026 17.4167 5.03192 17.4167 4.23254 16.9292C3.83733 16.6881 3.49666 16.3674 3.23224 15.9874C2.6974 15.2189 2.63288 14.1502 2.50384 12.0127L2 3.66675" stroke="#5B6078" stroke-width="1.5" stroke-linecap="round"/>
<path d="M0.75 3.66667L15.75 3.66667M11.6298 3.66667L11.0609 2.49311C10.683 1.71355 10.494 1.32377 10.1681 1.08067C10.0958 1.02675 10.0192 0.978785 9.93919 0.937251C9.57826 0.75 9.1451 0.75 8.27877 0.75C7.39069 0.75 6.94665 0.75 6.57974 0.9451C6.49842 0.98834 6.42082 1.03825 6.34774 1.09431C6.01803 1.34725 5.83386 1.75129 5.4655 2.55938L4.96077 3.66667" stroke="#5B6078" stroke-width="1.5" stroke-linecap="round"/>
<path d="M6.16602 12.8334L6.16602 7.83337" stroke="#5B6078" stroke-width="1.5" stroke-linecap="round"/>
<path d="M10.334 12.8334L10.334 7.83337" stroke="#5B6078" stroke-width="1.5" stroke-linecap="round"/>
</svg>
