<svg width="14" height="14" viewBox="0 0 14 14" fill="none" xmlns="http://www.w3.org/2000/svg">
<path fill-rule="evenodd" clip-rule="evenodd" d="M1.94048 0.379342C2.4338 0.174378 3.151 0 4.15625 0C5.23407 0 6.12464 0.370484 6.85083 0.67258C6.86665 0.679161 6.88239 0.685709 6.89805 0.692221C7.66714 1.01194 8.26531 1.25037 8.96875 1.25037C9.76797 1.25037 10.2538 1.11224 10.5124 1.00466C10.6427 0.950482 10.72 0.902155 10.7543 0.878337C10.7632 0.872212 10.7693 0.867595 10.773 0.864778C11.0204 0.630029 11.3834 0.559762 11.7021 0.688171C12.0332 0.821599 12.25 1.14278 12.25 1.49975L12.25 9.00025C12.25 9.22648 12.1624 9.44391 12.0055 9.60693L11.375 9.00025C12.0055 9.60693 12.0051 9.6074 12.0046 9.60786L12.0037 9.60881L12.0018 9.61074L11.9979 9.61477L11.9892 9.62346C11.9831 9.62954 11.9763 9.63617 11.9687 9.64331C11.9536 9.65759 11.9356 9.6739 11.9146 9.6919C11.8725 9.72792 11.8184 9.77057 11.7511 9.81717C11.6162 9.9106 11.4302 10.0186 11.1845 10.1207C10.6912 10.3256 9.974 10.5 8.96875 10.5C7.89093 10.5 7.00036 10.1295 6.27418 9.82742C6.25836 9.82084 6.24261 9.81429 6.22695 9.80778C5.45786 9.48806 4.85969 9.24963 4.15625 9.24963C3.35982 9.24963 2.87459 9.3868 2.61529 9.49421C2.62168 9.53688 2.625 9.58055 2.625 9.625L2.625 13.125C2.625 13.6082 2.23325 14 1.75 14C1.26675 14 0.875 13.6082 0.875 13.125L0.875 9.625C0.875 9.51484 0.895357 9.40943 0.932515 9.31234C0.895138 9.2145 0.875 9.10904 0.875 9.00025L0.875 1.49975C0.875 1.27352 0.96262 1.05609 1.11947 0.893068L1.75 1.49975C1.11947 0.893068 1.11992 0.892604 1.12037 0.892137L1.12128 0.891192L1.12316 0.889261L1.1271 0.885235L1.13577 0.876539C1.14191 0.870461 1.14874 0.86383 1.1563 0.85669C1.17142 0.842407 1.18941 0.826097 1.21045 0.808098C1.25254 0.772077 1.30663 0.729427 1.37391 0.682828C1.5088 0.589399 1.69475 0.481437 1.94048 0.379342ZM2.625 1.99003L2.625 7.66161C3.0382 7.56449 3.5438 7.49963 4.15625 7.49963C5.2347 7.49963 6.12559 7.87023 6.85198 8.17241C6.86763 8.17892 6.88321 8.1854 6.89871 8.19185C7.66792 8.51161 8.2658 8.75 8.96875 8.75C9.75533 8.75 10.2383 8.61655 10.5 8.50997L10.5 2.83839C10.0868 2.93551 9.5812 3.00037 8.96875 3.00037C7.8903 3.00037 6.99941 2.62977 6.27302 2.32759C6.25737 2.32108 6.24179 2.3146 6.22629 2.30815C5.45708 1.98839 4.8592 1.75 4.15625 1.75C3.36967 1.75 2.88668 1.88345 2.625 1.99003Z" fill="#9AA1B5"/>
</svg>
