<svg width="12" height="12" viewBox="0 0 12 12" fill="none" xmlns="http://www.w3.org/2000/svg">
<g clip-path="url(#clip0_1585_582161)">
<path fill-rule="evenodd" clip-rule="evenodd" d="M4.19144 2.71676C4.90347 2.3242 5.72379 2.1737 6.5288 2.28793C7.34052 2.40311 7.96695 2.77781 8.54968 3.32141C8.92585 3.67232 9.25999 4.0679 9.60915 4.5H8.24994C7.83572 4.5 7.49994 4.83579 7.49994 5.25C7.49994 5.66421 7.83572 6 8.24994 6L11.2499 6C11.6642 6 11.9999 5.66421 11.9999 5.25L11.9999 2.25C11.9999 1.83579 11.6642 1.5 11.2499 1.5C10.8357 1.5 10.4999 1.83579 10.4999 2.25V3.22103C10.2084 2.87334 9.90067 2.53035 9.57287 2.22456C8.83636 1.53751 7.93907 0.973022 6.73954 0.80281C5.61253 0.642887 4.46407 0.853591 3.46723 1.40317C2.47039 1.95275 1.67917 2.81142 1.2128 3.84981C0.74644 4.88819 0.630197 6.05001 0.881592 7.16021C1.13299 8.2704 1.7384 9.26881 2.6066 10.005C3.4748 10.7412 4.55875 11.1752 5.6951 11.2418C6.83146 11.3083 7.95865 11.0037 8.90683 10.3739C9.85501 9.74403 10.5728 8.82309 10.952 7.74982C11.09 7.35927 10.8853 6.93079 10.4947 6.7928C10.1042 6.6548 9.67572 6.85953 9.53772 7.25008C9.26684 8.0167 8.75414 8.67452 8.07687 9.1244C7.3996 9.57428 6.59446 9.79185 5.78277 9.74433C4.97109 9.69681 4.19684 9.38676 3.5767 8.86092C2.95656 8.33508 2.52412 7.62193 2.34455 6.82893C2.16499 6.03593 2.24802 5.20606 2.58113 4.46436C2.91425 3.72266 3.47941 3.10932 4.19144 2.71676Z" fill="#ED9121"/>
</g>
<defs>
<clipPath id="clip0_1585_582161">
<rect width="12" height="12" fill="white"/>
</clipPath>
</defs>
</svg>
