<svg width="14" height="14" viewBox="0 0 14 14" fill="none" xmlns="http://www.w3.org/2000/svg">
<g clip-path="url(#clip0_928_475044)">
<path fill-rule="evenodd" clip-rule="evenodd" d="M6.98926 0.292006C7.87708 0.281132 8.75864 0.447081 9.58203 0.77931C10.4053 1.11149 11.1545 1.60371 11.7861 2.22755C12.4177 2.85147 12.9194 3.5949 13.2617 4.41408C13.604 5.23335 13.7803 6.11309 13.7803 7.00099C13.7802 7.88874 13.604 8.7678 13.2617 9.58693C12.9194 10.4061 12.4178 11.1495 11.7861 11.7735C11.1545 12.3973 10.4053 12.8895 9.58203 13.2217C8.75863 13.5539 7.87709 13.7199 6.98926 13.709C5.22454 13.6873 3.53911 12.9704 2.29883 11.7149C1.05874 10.4593 0.363401 8.76569 0.363281 7.00099C0.363281 5.23611 1.05861 3.54179 2.29883 2.28615C3.53911 1.03058 5.22454 0.313731 6.98926 0.292006ZM7.01074 2.04201C5.70639 2.05808 4.46068 2.58761 3.54395 3.51564C2.62715 4.44375 2.11328 5.69641 2.11328 7.00099C2.1134 8.30539 2.62727 9.55736 3.54395 10.4854C4.46068 11.4134 5.70638 11.9429 7.01074 11.959C7.66698 11.967 8.31912 11.8442 8.92773 11.5986C9.53613 11.3531 10.0899 10.9894 10.5566 10.5283C11.0235 10.0671 11.3945 9.51768 11.6475 8.91212C11.9004 8.30674 12.0302 7.65708 12.0303 7.00099C12.0303 6.34472 11.9005 5.69442 11.6475 5.08888C11.3945 4.48332 11.0235 3.93388 10.5566 3.47267C10.0899 3.01161 9.53613 2.64791 8.92773 2.40236C8.31912 2.15679 7.66698 2.03397 7.01074 2.04201ZM7 2.62501C7.48322 2.62501 7.87495 3.0168 7.875 3.50001L7.875 6.459L9.72559 7.3838C10.1576 7.59989 10.3331 8.12548 10.1172 8.55763C9.9012 8.98977 9.37555 9.16499 8.94336 8.94923L6.60937 7.78322C6.31287 7.63502 6.12598 7.33149 6.12598 7.00001L6.12598 3.50001C6.12602 3.01697 6.517 2.62528 7 2.62501Z" fill="#9AA1B5"/>
</g>
<defs>
<clipPath id="clip0_928_475044">
<rect width="14" height="14" fill="white"/>
</clipPath>
</defs>
</svg>
