<svg width="16" height="16" viewBox="0 0 16 16" fill="none" xmlns="http://www.w3.org/2000/svg">
<path fill-rule="evenodd" clip-rule="evenodd" d="M6.41764 2.13944C7.60963 1.87002 8.85678 1.99314 9.97308 2.49043C10.4776 2.71517 11.0687 2.48839 11.2935 1.9839C11.5182 1.47941 11.2914 0.888253 10.7869 0.663512C9.27667 -0.00928354 7.58938 -0.175853 5.97672 0.188649C4.36405 0.55315 2.91242 1.42919 1.83832 2.68612C0.764215 3.94304 0.125198 5.5135 0.0165713 7.16327C-0.0920556 8.81305 0.335527 10.4537 1.23555 11.8406C2.13557 13.2276 3.45981 14.2864 5.01076 14.8592C6.56171 15.432 8.25627 15.4881 9.84171 15.0191C11.4272 14.5502 12.8185 13.5813 13.8083 12.2569C14.7981 10.9326 15.3333 9.32376 15.334 7.67042V7.05697C15.334 6.50469 14.8863 6.05697 14.334 6.05697C13.7817 6.05697 13.334 6.50469 13.334 7.05697V7.66953C13.3334 8.89143 12.9378 10.0808 12.2063 11.0596C11.4747 12.0385 10.4463 12.7546 9.27442 13.1013C8.10256 13.4479 6.85003 13.4064 5.70366 12.983C4.55729 12.5597 3.57849 11.777 2.91325 10.7519C2.248 9.72679 1.93196 8.51409 2.01225 7.29468C2.09254 6.07526 2.56486 4.91447 3.35878 3.98542C4.15269 3.05638 5.22565 2.40886 6.41764 2.13944ZM15.0414 3.0437C15.4318 2.653 15.4315 2.01984 15.0408 1.62949C14.6501 1.23914 14.0169 1.23943 13.6266 1.63013L7.66667 7.59538L6.3741 6.30281C5.98358 5.91228 5.35041 5.91228 4.95989 6.30281C4.56936 6.69333 4.56936 7.3265 4.95989 7.71702L6.95989 9.71702C7.14748 9.90461 7.40192 10.01 7.66722 10.0099C7.93251 10.0099 8.18691 9.90438 8.37442 9.7167L15.0414 3.0437Z" fill="#2DBE2C"/>
</svg>
