<svg width="20" height="20" viewBox="0 0 20 20" fill="none" xmlns="http://www.w3.org/2000/svg">
<path fill-rule="evenodd" clip-rule="evenodd" d="M10.0479 1.45801C11.8733 1.458 13.3073 1.45789 14.4268 1.6084C15.5739 1.76264 16.4841 2.08563 17.1992 2.80078C17.9144 3.51594 18.2374 4.42605 18.3916 5.57324C18.5421 6.69271 18.542 8.12666 18.542 9.95215V10.0479C18.542 11.8733 18.5421 13.3073 18.3916 14.4268C18.2374 15.5739 17.9144 16.4841 17.1992 17.1992C16.4841 17.9144 15.5739 18.2374 14.4268 18.3916C13.3073 18.5421 11.8733 18.542 10.0479 18.542H9.95215C8.12666 18.542 6.69271 18.5421 5.57324 18.3916C4.42605 18.2374 3.51594 17.9144 2.80078 17.1992C2.08563 16.4841 1.76264 15.5739 1.6084 14.4268C1.45789 13.3073 1.458 11.8733 1.45801 10.0479V9.95215C1.458 8.12666 1.45789 6.69271 1.6084 5.57324C1.76264 4.42605 2.08563 3.51594 2.80078 2.80078C3.51594 2.08563 4.42605 1.76264 5.57324 1.6084C6.69271 1.45789 8.12666 1.458 9.95215 1.45801H10.0479ZM10 2.70801C8.11655 2.70801 6.76678 2.70968 5.74023 2.84766C4.73163 2.98326 4.12877 3.24037 3.68457 3.68457C3.24037 4.12877 2.98326 4.73163 2.84766 5.74023C2.70968 6.76678 2.70801 8.11655 2.70801 10C2.70801 11.8834 2.70968 13.2332 2.84766 14.2598C2.98326 15.2684 3.24037 15.8712 3.68457 16.3154C4.12877 16.7596 4.73163 17.0167 5.74023 17.1523C6.76678 17.2903 8.11655 17.292 10 17.292C11.8834 17.292 13.2332 17.2903 14.2598 17.1523C15.2684 17.0167 15.8712 16.7596 16.3154 16.3154C16.7596 15.8712 17.0167 15.2684 17.1523 14.2598C17.2903 13.2332 17.292 11.8834 17.292 10C17.292 8.11655 17.2903 6.76678 17.1523 5.74023C17.0167 4.73163 16.7596 4.12877 16.3154 3.68457C15.8712 3.24037 15.2684 2.98326 14.2598 2.84766C13.2332 2.70968 11.8834 2.70801 10 2.70801ZM5.79785 13.7354C7.97535 11.4547 11.9871 11.3313 14.21 13.7432C14.4436 13.9969 14.4273 14.3921 14.1738 14.626C13.92 14.8599 13.524 14.8437 13.29 14.5898C11.5848 12.7401 8.4107 12.8091 6.70215 14.5986C6.46383 14.8481 6.06798 14.8573 5.81836 14.6191C5.56877 14.3808 5.55968 13.985 5.79785 13.7354ZM9.99316 5.20801C11.4896 5.20813 12.7041 6.42046 12.7041 7.91699C12.7039 9.41338 11.4895 10.6249 9.99316 10.625C8.4967 10.625 7.28143 9.41345 7.28125 7.91699C7.28125 6.42038 8.49659 5.20801 9.99316 5.20801ZM9.99316 6.45801C9.18527 6.45801 8.53125 7.11242 8.53125 7.91699C8.53143 8.72142 9.18538 9.375 9.99316 9.375C10.8008 9.37488 11.4539 8.72135 11.4541 7.91699C11.4541 7.11249 10.801 6.45813 9.99316 6.45801Z" fill="white"/>
</svg>
