<svg width="20" height="20" viewBox="0 0 20 20" fill="none" xmlns="http://www.w3.org/2000/svg">
<path d="M17.3116 15C17.9361 15 18.4327 14.6071 18.8787 14.0576C19.7915 12.9329 18.2927 12.034 17.7211 11.5938C17.14 11.1463 16.4911 10.8928 15.8333 10.8333M14.9999 9.16667C16.1505 9.16667 17.0833 8.23393 17.0833 7.08333C17.0833 5.93274 16.1505 5 14.9999 5" stroke="#1A1D2E" stroke-width="1.5" stroke-linecap="round"/>
<path d="M2.68825 15C2.06383 15 1.56717 14.6071 1.12124 14.0576C0.208356 12.9329 1.70717 12.034 2.27882 11.5938C2.85993 11.1463 3.50877 10.8928 4.16662 10.8333M4.58328 9.16667C3.43269 9.16667 2.49995 8.23393 2.49995 7.08333C2.49995 5.93274 3.43269 5 4.58328 5" stroke="#1A1D2E" stroke-width="1.5" stroke-linecap="round"/>
<path d="M6.73642 12.5926C5.88494 13.1191 3.65241 14.1942 5.01217 15.5395C5.6764 16.1966 6.41619 16.6666 7.34627 16.6666H12.6536C13.5837 16.6666 14.3234 16.1966 14.9877 15.5395C16.3474 14.1942 14.1149 13.1191 13.2634 12.5926C11.2667 11.358 8.73313 11.358 6.73642 12.5926Z" stroke="#1A1D2E" stroke-width="1.5" stroke-linecap="round" stroke-linejoin="round"/>
<path d="M12.9166 6.25004C12.9166 7.86087 11.6107 9.16671 9.99992 9.16671C8.38909 9.16671 7.08325 7.86087 7.08325 6.25004C7.08325 4.63921 8.38909 3.33337 9.99992 3.33337C11.6107 3.33337 12.9166 4.63921 12.9166 6.25004Z" stroke="#1A1D2E" stroke-width="1.5"/>
</svg>
