<svg width="16" height="16" viewBox="0 0 16 16" fill="none" xmlns="http://www.w3.org/2000/svg">
<path d="M14.6489 13.125C13.792 11.6211 12.4539 10.4493 10.8502 9.79817C11.6477 9.2 12.2368 8.36606 12.5341 7.41446C12.8313 6.46287 12.8217 5.44187 12.5064 4.49609C12.1911 3.5503 11.5863 2.72769 10.7775 2.14477C9.96876 1.56185 8.99709 1.24817 8.00015 1.24817C7.00321 1.24817 6.03154 1.56185 5.22278 2.14477C4.41402 2.72769 3.80917 3.5503 3.4939 4.49609C3.17864 5.44187 3.16895 6.46287 3.46621 7.41446C3.76347 8.36606 4.3526 9.2 5.15015 9.79817C3.54635 10.4493 2.2083 11.6211 1.3514 13.125C1.2983 13.2104 1.26291 13.3056 1.24734 13.4049C1.23176 13.5043 1.23631 13.6057 1.26073 13.7032C1.28514 13.8008 1.32891 13.8924 1.38944 13.9727C1.44997 14.0529 1.52603 14.1202 1.61308 14.1705C1.70014 14.2208 1.79642 14.2531 1.8962 14.2655C1.99598 14.2778 2.09722 14.27 2.19391 14.2424C2.2906 14.2148 2.38076 14.1681 2.45903 14.105C2.5373 14.0419 2.60208 13.9637 2.64952 13.875C3.78203 11.9175 5.78203 10.75 8.00015 10.75C10.2183 10.75 12.2183 11.9182 13.3508 13.875C13.4536 14.0404 13.6167 14.1592 13.8056 14.2065C13.9944 14.2538 14.1943 14.2258 14.3629 14.1284C14.5314 14.031 14.6555 13.8718 14.7089 13.6846C14.7623 13.4974 14.7408 13.2967 14.6489 13.125ZM4.75015 6.00004C4.75015 5.35725 4.94076 4.7289 5.29787 4.19444C5.65499 3.65998 6.16257 3.24342 6.75643 2.99744C7.35029 2.75145 8.00376 2.68709 8.63419 2.81249C9.26463 2.93789 9.84373 3.24743 10.2982 3.70195C10.7528 4.15647 11.0623 4.73556 11.1877 5.366C11.3131 5.99644 11.2487 6.64991 11.0028 7.24376C10.7568 7.83762 10.3402 8.34521 9.80575 8.70232C9.27129 9.05943 8.64294 9.25004 8.00015 9.25004C7.1385 9.24905 6.31243 8.90632 5.70315 8.29704C5.09387 7.68777 4.75114 6.86169 4.75015 6.00004Z" fill="#2DBE2C"/>
</svg>
