<svg width="24" height="24" viewBox="0 0 24 24" fill="none" xmlns="http://www.w3.org/2000/svg">
<path fill-rule="evenodd" clip-rule="evenodd" d="M12 17.2501C12.4142 17.2501 12.75 17.5859 12.75 18.0001V22.0001C12.75 22.4143 12.4142 22.7501 12 22.7501C11.5858 22.7501 11.25 22.4143 11.25 22.0001V18.0001C11.25 17.5859 11.5858 17.2501 12 17.2501ZM8 18.2501C8.41421 18.2501 8.75 18.5859 8.75 19.0001V21.0001C8.75 21.4143 8.41421 21.7501 8 21.7501C7.58579 21.7501 7.25 21.4143 7.25 21.0001V19.0001C7.25 18.5859 7.58579 18.2501 8 18.2501ZM15.0127 2.4161C16.9785 2.11817 19.6369 2.1125 22.3105 3.32821C22.5781 3.44998 22.75 3.71685 22.75 4.01082V19.1671C22.75 19.4221 22.6206 19.6599 22.4062 19.7979C22.1918 19.936 21.9216 19.9552 21.6895 19.8497C20.7459 19.4207 19.8006 19.1651 18.8906 19.0304C18.4809 18.9697 18.1971 18.5876 18.2578 18.1778C18.3186 17.7684 18.6999 17.4856 19.1094 17.546C19.8057 17.6491 20.5242 17.8156 21.25 18.0636V4.50594C19.0705 3.63602 16.9091 3.6461 15.2373 3.8995C14.3478 4.03433 13.6066 4.23685 13.0908 4.40438C12.8333 4.48805 12.4431 4.64084 12.3096 4.69344C9.63615 5.90879 6.97829 5.90248 5.0127 5.60457C4.09486 5.46546 3.31906 5.26109 2.75 5.08211V18.6563C2.83976 18.6887 2.94234 18.7243 3.05664 18.7618C3.55087 18.924 4.26245 19.1223 5.11914 19.2598C5.52795 19.3256 5.80588 19.7103 5.74023 20.1192C5.67442 20.528 5.28973 20.806 4.88086 20.7403C3.93232 20.588 3.14325 20.3695 2.58887 20.1876C2.31945 20.0992 1.86999 19.9212 1.7041 19.8556L1.68945 19.8497C1.42199 19.7279 1.25003 19.461 1.25 19.1671V4.01082C1.25 3.7559 1.37946 3.51803 1.59375 3.37996C1.80802 3.24201 2.07754 3.22192 2.30957 3.32723C2.4431 3.37985 2.83327 3.53361 3.09082 3.61727C3.60663 3.7848 4.34777 3.98634 5.2373 4.12118C7.02144 4.39159 9.36327 4.38583 11.6895 3.32821L11.6973 3.3243C11.7475 3.30291 11.8737 3.2496 11.9492 3.21981C12.1086 3.15698 12.3386 3.07159 12.6279 2.97762C13.2058 2.78993 14.0274 2.56544 15.0127 2.4161ZM16 16.2501C16.4142 16.2501 16.75 16.5859 16.75 17.0001V19.0001C16.75 19.4143 16.4142 19.7501 16 19.7501C15.5858 19.7501 15.25 19.4143 15.25 19.0001V17.0001C15.25 16.5859 15.5858 16.2501 16 16.2501ZM12 8.25008C13.7949 8.25008 15.25 9.70516 15.25 11.5001C15.25 13.295 13.7949 14.7501 12 14.7501C10.2051 14.7501 8.75 13.295 8.75 11.5001C8.75 9.70516 10.2051 8.25008 12 8.25008ZM5.5 11.5001C6.05228 11.5001 6.5 11.9478 6.5 12.5001V12.5089C6.5 13.0612 6.05228 13.5089 5.5 13.5089C4.94772 13.5089 4.5 13.0612 4.5 12.5089V12.5001C4.5 11.9478 4.94772 11.5001 5.5 11.5001ZM12 9.75008C11.0335 9.75008 10.25 10.5336 10.25 11.5001C10.25 12.4666 11.0335 13.2501 12 13.2501C12.9665 13.2501 13.75 12.4666 13.75 11.5001C13.75 10.5336 12.9665 9.75008 12 9.75008ZM18.5 9.49227C19.0523 9.49227 19.5 9.93998 19.5 10.4923V10.5011C19.5 11.0533 19.0523 11.5011 18.5 11.5011C17.9477 11.5011 17.5 11.0533 17.5 10.5011V10.4923C17.5 9.93998 17.9477 9.49227 18.5 9.49227Z" fill="#5B6078"/>
</svg>
